<mxfile host="Electron" modified="2023-05-24T19:09:44.992Z" agent="Mozilla/5.0 (Windows NT 10.0; Win64; x64) AppleWebKit/537.36 (KHTML, like Gecko) draw.io/21.2.8 Chrome/112.0.5615.165 Electron/24.2.0 Safari/537.36" etag="94u_rIJb7rPaHpr-C3XO" version="21.2.8" type="device">
  <diagram id="mFmQFxE97EAzXd9W7Ytw" name="Page-1">
    <mxGraphModel dx="2287" dy="828" grid="1" gridSize="10" guides="1" tooltips="1" connect="1" arrows="1" fold="1" page="1" pageScale="1" pageWidth="1100" pageHeight="850" math="0" shadow="0">
      <root>
        <mxCell id="0" />
        <mxCell id="1" parent="0" />
        <mxCell id="ex6ODeGvGHaaBn46lhsk-4" value="PERSON" style="rounded=0;whiteSpace=wrap;html=1;" parent="1" vertex="1">
          <mxGeometry x="212.5" y="245" width="140" height="35" as="geometry" />
        </mxCell>
        <mxCell id="ex6ODeGvGHaaBn46lhsk-5" value="PATIENT" style="rounded=0;whiteSpace=wrap;html=1;" parent="1" vertex="1">
          <mxGeometry x="480" y="585.1700000000002" width="140" height="40" as="geometry" />
        </mxCell>
        <mxCell id="ex6ODeGvGHaaBn46lhsk-6" value="DEPARTMENT" style="rounded=0;whiteSpace=wrap;html=1;" parent="1" vertex="1">
          <mxGeometry x="-569" y="585.17" width="140" height="40" as="geometry" />
        </mxCell>
        <mxCell id="ex6ODeGvGHaaBn46lhsk-7" value="PROCEDURE DONE" style="rounded=0;whiteSpace=wrap;html=1;" parent="1" vertex="1">
          <mxGeometry x="183" y="1070" width="140" height="40" as="geometry" />
        </mxCell>
        <mxCell id="ex6ODeGvGHaaBn46lhsk-8" value="DOCTOR" style="rounded=0;whiteSpace=wrap;html=1;" parent="1" vertex="1">
          <mxGeometry x="-59.99999999999997" y="585.17" width="140" height="40" as="geometry" />
        </mxCell>
        <mxCell id="ex6ODeGvGHaaBn46lhsk-20" value="o" style="ellipse;whiteSpace=wrap;html=1;aspect=fixed;" parent="1" vertex="1">
          <mxGeometry x="271.17" y="337.5" width="20" height="20" as="geometry" />
        </mxCell>
        <mxCell id="Z0diHhCHHdHb7VZK64Az-18" style="edgeStyle=orthogonalEdgeStyle;rounded=0;orthogonalLoop=1;jettySize=auto;html=1;exitX=0.5;exitY=1;exitDx=0;exitDy=0;" parent="1" edge="1">
          <mxGeometry relative="1" as="geometry">
            <mxPoint x="17" y="365" as="sourcePoint" />
            <mxPoint x="17" y="365" as="targetPoint" />
          </mxGeometry>
        </mxCell>
        <mxCell id="Z0diHhCHHdHb7VZK64Az-25" value="" style="shape=stencil(lVfZbhsxDPyafSV0UaKe0/Q/AsSpjbp24LjX35fbReRQakfw28bh7PKYGUpLfHjbP73uluDerpfz193Pw/N1v8RPSwiH0353OVz1aYmPS3x4OV92Xy7n76fn7e/XpzVyffp2/rG+4deG80IcVlRwv7dfHDn394fPW/zxcILxkWK8Jz5TLiC+UK0mvr6/4H/xbOO9I0EJFfLRAiIVBoCWcANMSsgUnAVoDQIATEEMIARyCJAosgUk/IVANVvApAZNIFlAJY8Anry3vPDwC5VKx6MEPyDvNGvxuIJMyfY0Chwzk7M8Sp4CiFfS2CEnTKNAxeaTJhMgsSNOmESOqu0PB2IgZEfJMoKZEhBas4UWL1D4Q3zGfBjjGRrRGD/Lp6u3zPLp+llwPsO8ijoZ6GekYAUmDvY/Ubb5SIDvH/gveL5CYvspBfJnFLxMXC5SshVUrLDRRyum9LhrKvaU0FZFAzBcHjq1bIuuBTq1jiHWHoDGdrPZBsC+FQOlLiXs1JEpcw9Ag1PjlH7F4kNCCuNSniC0T+6epHjQ/6RsHgRXsWHwoKCKFcHDSqsZEjwPW7lij8mjIvDSUU+sXQ34ZKGm2M8B21IZFCG4rWqjnbEK7lKRwSknJwXXr3LBRYvvJ10w+fR9YkVasA1oxqHbPvjApj3p3LVMamjcbPtwUsOg6jypoZLYlDKew2rvdx0B6mAbjDWt7O8MnzGXdB8kyyXG1xcFVFs0Yz3cFkg7t2HXUI8olhoJU0NdKA8nVdhWIW8NP2KJKqDTdMS+pNYbu8M2TunDOmj3C5zTvxB9Uvpwu+a+HI7H7Zb88f/9tVh/2q7U8fEP);fillColor=none;sketch=1;hachureGap=4;jiggle=2;curveFitting=1;fontFamily=Architects Daughter;fontSource=https%3A%2F%2Ffonts.googleapis.com%2Fcss%3Ffamily%3DArchitects%2BDaughter;fontSize=20;rotation=45;" parent="1" vertex="1">
          <mxGeometry x="80.29" y="509.29" width="20" height="20" as="geometry" />
        </mxCell>
        <mxCell id="Z0diHhCHHdHb7VZK64Az-32" value="" style="shape=link;html=1;rounded=0;entryX=0.5;entryY=0;entryDx=0;entryDy=0;" parent="1" target="ex6ODeGvGHaaBn46lhsk-20" edge="1">
          <mxGeometry width="100" relative="1" as="geometry">
            <mxPoint x="281" y="280" as="sourcePoint" />
            <mxPoint x="370" y="320" as="targetPoint" />
          </mxGeometry>
        </mxCell>
        <mxCell id="ex6ODeGvGHaaBn46lhsk-55" value="first_name" style="ellipse;whiteSpace=wrap;html=1;" parent="1" vertex="1">
          <mxGeometry x="227.5" y="130" width="110" height="60" as="geometry" />
        </mxCell>
        <mxCell id="ex6ODeGvGHaaBn46lhsk-57" value="last_name" style="ellipse;whiteSpace=wrap;html=1;" parent="1" vertex="1">
          <mxGeometry x="80.28999999999999" y="150" width="108" height="60" as="geometry" />
        </mxCell>
        <mxCell id="M5ZHULjdXG0Ne1l3_ViM-24" value="&lt;u&gt;Doctor ID&lt;/u&gt;" style="ellipse;whiteSpace=wrap;html=1;strokeWidth=1;" parent="1" vertex="1">
          <mxGeometry x="-245" y="672.5799999999999" width="77" height="45" as="geometry" />
        </mxCell>
        <mxCell id="ex6ODeGvGHaaBn46lhsk-60" value="middle_initial" style="ellipse;whiteSpace=wrap;html=1;" parent="1" vertex="1">
          <mxGeometry x="342.5" y="130" width="110" height="60" as="geometry" />
        </mxCell>
        <mxCell id="M5ZHULjdXG0Ne1l3_ViM-26" value="&lt;u&gt;Patient ID&lt;/u&gt;" style="ellipse;whiteSpace=wrap;html=1;strokeWidth=1;" parent="1" vertex="1">
          <mxGeometry x="719" y="655.1700000000001" width="80" height="45" as="geometry" />
        </mxCell>
        <mxCell id="ex6ODeGvGHaaBn46lhsk-65" value="phone" style="ellipse;whiteSpace=wrap;html=1;" parent="1" vertex="1">
          <mxGeometry x="-136.25" y="717.58" width="120" height="70" as="geometry" />
        </mxCell>
        <mxCell id="ex6ODeGvGHaaBn46lhsk-68" value="state" style="ellipse;whiteSpace=wrap;html=1;" parent="1" vertex="1">
          <mxGeometry x="650" y="127.36999999999996" width="92" height="65.26" as="geometry" />
        </mxCell>
        <mxCell id="ex6ODeGvGHaaBn46lhsk-69" value="city" style="ellipse;whiteSpace=wrap;html=1;" parent="1" vertex="1">
          <mxGeometry x="606" y="39.99999999999997" width="91" height="50.17" as="geometry" />
        </mxCell>
        <mxCell id="ex6ODeGvGHaaBn46lhsk-72" value="sex" style="ellipse;whiteSpace=wrap;html=1;" parent="1" vertex="1">
          <mxGeometry x="89.71000000000001" y="317.4999999999999" width="80" height="40" as="geometry" />
        </mxCell>
        <mxCell id="ex6ODeGvGHaaBn46lhsk-74" value="birthdate" style="ellipse;whiteSpace=wrap;html=1;" parent="1" vertex="1">
          <mxGeometry x="412.5" y="252.5" width="80" height="40" as="geometry" />
        </mxCell>
        <mxCell id="ex6ODeGvGHaaBn46lhsk-76" value="&lt;u&gt;ssn&lt;/u&gt;" style="ellipse;whiteSpace=wrap;html=1;" parent="1" vertex="1">
          <mxGeometry x="50.29" y="237.5" width="80" height="40" as="geometry" />
        </mxCell>
        <mxCell id="ex6ODeGvGHaaBn46lhsk-80" value="contact_num" style="ellipse;whiteSpace=wrap;html=1;" parent="1" vertex="1">
          <mxGeometry x="-125" y="460" width="97.5" height="50" as="geometry" />
        </mxCell>
        <mxCell id="M5ZHULjdXG0Ne1l3_ViM-36" value="description" style="ellipse;whiteSpace=wrap;html=1;strokeWidth=1;" parent="1" vertex="1">
          <mxGeometry x="1308.52" y="860.1700000000003" width="120" height="80" as="geometry" />
        </mxCell>
        <mxCell id="M5ZHULjdXG0Ne1l3_ViM-37" value="date" style="ellipse;whiteSpace=wrap;html=1;strokeWidth=1;" parent="1" vertex="1">
          <mxGeometry x="1488.52" y="730.1700000000003" width="120" height="80" as="geometry" />
        </mxCell>
        <mxCell id="ex6ODeGvGHaaBn46lhsk-82" value="department" style="ellipse;whiteSpace=wrap;html=1;" parent="1" vertex="1">
          <mxGeometry x="-234.99999999999994" y="479.9999999999999" width="90" height="50" as="geometry" />
        </mxCell>
        <mxCell id="M5ZHULjdXG0Ne1l3_ViM-38" value="interaction id" style="ellipse;whiteSpace=wrap;html=1;strokeWidth=1;" parent="1" vertex="1">
          <mxGeometry x="1428.52" y="635.1700000000003" width="120" height="80" as="geometry" />
        </mxCell>
        <mxCell id="M5ZHULjdXG0Ne1l3_ViM-39" value="time" style="ellipse;whiteSpace=wrap;html=1;strokeWidth=1;" parent="1" vertex="1">
          <mxGeometry x="1478.52" y="830.1700000000003" width="120" height="80" as="geometry" />
        </mxCell>
        <mxCell id="ex6ODeGvGHaaBn46lhsk-85" value="Name" style="ellipse;whiteSpace=wrap;html=1;" parent="1" vertex="1">
          <mxGeometry y="1090" width="115" height="60" as="geometry" />
        </mxCell>
        <mxCell id="ex6ODeGvGHaaBn46lhsk-87" value="Description" style="ellipse;whiteSpace=wrap;html=1;" parent="1" vertex="1">
          <mxGeometry x="300.17" y="1209.8" width="98.83" height="40" as="geometry" />
        </mxCell>
        <mxCell id="M5ZHULjdXG0Ne1l3_ViM-49" value="Date" style="ellipse;whiteSpace=wrap;html=1;strokeWidth=1;" parent="1" vertex="1">
          <mxGeometry x="198" y="1249.8" width="110" height="55" as="geometry" />
        </mxCell>
        <mxCell id="ex6ODeGvGHaaBn46lhsk-89" value="&lt;u&gt;procedure number&lt;/u&gt;" style="ellipse;whiteSpace=wrap;html=1;" parent="1" vertex="1">
          <mxGeometry x="437.5" y="1050" width="95" height="50" as="geometry" />
        </mxCell>
        <mxCell id="ex6ODeGvGHaaBn46lhsk-92" value="Duration of procedure" style="ellipse;whiteSpace=wrap;html=1;" parent="1" vertex="1">
          <mxGeometry x="432.5" y="1115" width="110" height="55" as="geometry" />
        </mxCell>
        <mxCell id="ex6ODeGvGHaaBn46lhsk-94" value="Offering department" style="ellipse;whiteSpace=wrap;html=1;" parent="1" vertex="1">
          <mxGeometry x="525" y="1230" width="115" height="60" as="geometry" />
        </mxCell>
        <mxCell id="ex6ODeGvGHaaBn46lhsk-96" value="Notes" style="ellipse;whiteSpace=wrap;html=1;" parent="1" vertex="1">
          <mxGeometry x="401.5" y="1240" width="105" height="60" as="geometry" />
        </mxCell>
        <mxCell id="M5ZHULjdXG0Ne1l3_ViM-57" value="Primary Doctor" style="ellipse;whiteSpace=wrap;html=1;strokeWidth=1;" parent="1" vertex="1">
          <mxGeometry x="649.9999999999998" y="425.00000000000017" width="120" height="80" as="geometry" />
        </mxCell>
        <mxCell id="M5ZHULjdXG0Ne1l3_ViM-58" value="Secondary Doctor" style="ellipse;whiteSpace=wrap;html=1;strokeWidth=1;" parent="1" vertex="1">
          <mxGeometry x="522.4999999999998" y="385.0000000000002" width="120" height="80" as="geometry" />
        </mxCell>
        <mxCell id="M5ZHULjdXG0Ne1l3_ViM-63" value="&lt;u&gt;Unique name&lt;/u&gt;" style="ellipse;whiteSpace=wrap;html=1;strokeWidth=1;" parent="1" vertex="1">
          <mxGeometry x="60" y="767.75" width="109.71" height="42.42" as="geometry" />
        </mxCell>
        <mxCell id="ex6ODeGvGHaaBn46lhsk-102" value="Manufacturer" style="ellipse;whiteSpace=wrap;html=1;" parent="1" vertex="1">
          <mxGeometry x="352.5" y="802.59" width="77.5" height="39.83" as="geometry" />
        </mxCell>
        <mxCell id="M5ZHULjdXG0Ne1l3_ViM-67" value="Date" style="ellipse;whiteSpace=wrap;html=1;strokeWidth=1;" parent="1" vertex="1">
          <mxGeometry x="146.5" y="837.3399999999999" width="81" height="37.75" as="geometry" />
        </mxCell>
        <mxCell id="M5ZHULjdXG0Ne1l3_ViM-70" value="Description&amp;nbsp;" style="ellipse;whiteSpace=wrap;html=1;strokeWidth=1;" parent="1" vertex="1">
          <mxGeometry x="248.67000000000013" y="845.17" width="88.83" height="50" as="geometry" />
        </mxCell>
        <mxCell id="M5ZHULjdXG0Ne1l3_ViM-53" value="Time" style="ellipse;whiteSpace=wrap;html=1;strokeWidth=1;rotation=0;" parent="1" vertex="1">
          <mxGeometry x="71" y="1220" width="112" height="70" as="geometry" />
        </mxCell>
        <mxCell id="b0EoOKl0pUxKoFHr_qgT-12" value="gets" style="rhombus;whiteSpace=wrap;html=1;" parent="1" vertex="1">
          <mxGeometry x="452.49999999999994" y="920.0000000000001" width="80" height="80" as="geometry" />
        </mxCell>
        <mxCell id="7zId03I186Me9R3SvJil-4" value="Department Name" style="ellipse;whiteSpace=wrap;html=1;align=center;" parent="1" vertex="1">
          <mxGeometry x="-549" y="495" width="100" height="40" as="geometry" />
        </mxCell>
        <mxCell id="7zId03I186Me9R3SvJil-10" value="Office Phone" style="ellipse;whiteSpace=wrap;html=1;align=center;" parent="1" vertex="1">
          <mxGeometry x="-550" y="695.0799999999999" width="100" height="40" as="geometry" />
        </mxCell>
        <mxCell id="sY98af0_FfTnuo9R5cYQ-15" value="" style="endArrow=none;html=1;rounded=0;exitX=1;exitY=0.5;exitDx=0;exitDy=0;exitPerimeter=0;entryX=0;entryY=0.5;entryDx=0;entryDy=0;entryPerimeter=0;" parent="1" source="Bhoyn6dy_ex8HsSdMJCQ-1" target="YjGcaw5Ntm2ppvBMO__e-6" edge="1">
          <mxGeometry width="50" height="50" relative="1" as="geometry">
            <mxPoint x="950" y="685" as="sourcePoint" />
            <mxPoint x="1043" y="695" as="targetPoint" />
          </mxGeometry>
        </mxCell>
        <mxCell id="7zId03I186Me9R3SvJil-13" value="Office Num" style="ellipse;whiteSpace=wrap;html=1;align=center;fontStyle=4;" parent="1" vertex="1">
          <mxGeometry x="-800" y="585.1700000000001" width="100" height="40" as="geometry" />
        </mxCell>
        <mxCell id="GRqxCG2405LfjTbJEl8U-3" value="Managed by" style="rhombus;whiteSpace=wrap;html=1;" parent="1" vertex="1">
          <mxGeometry x="-300" y="755.08" width="105" height="100" as="geometry" />
        </mxCell>
        <mxCell id="4g1qp87NJjCha5IHyrVn-17" value="department_head" style="ellipse;whiteSpace=wrap;html=1;" parent="1" vertex="1">
          <mxGeometry x="-390" y="880" width="120" height="80" as="geometry" />
        </mxCell>
        <mxCell id="ex6ODeGvGHaaBn46lhsk-46" value="has a" style="rhombus;whiteSpace=wrap;html=1;" parent="1" vertex="1">
          <mxGeometry x="-280" y="575.17" width="65" height="60" as="geometry" />
        </mxCell>
        <mxCell id="zd6AvIp-qwFRRj_zyXv2-1" value="" style="endArrow=none;html=1;rounded=0;entryX=0;entryY=0;entryDx=0;entryDy=0;exitX=0.857;exitY=1.021;exitDx=0;exitDy=0;exitPerimeter=0;" parent="1" source="ex6ODeGvGHaaBn46lhsk-6" target="GRqxCG2405LfjTbJEl8U-3" edge="1">
          <mxGeometry relative="1" as="geometry">
            <mxPoint x="-380" y="810" as="sourcePoint" />
            <mxPoint x="-220" y="810" as="targetPoint" />
          </mxGeometry>
        </mxCell>
        <mxCell id="zd6AvIp-qwFRRj_zyXv2-2" value="1" style="resizable=0;html=1;align=right;verticalAlign=bottom;" parent="zd6AvIp-qwFRRj_zyXv2-1" connectable="0" vertex="1">
          <mxGeometry x="1" relative="1" as="geometry">
            <mxPoint x="-16" y="-20" as="offset" />
          </mxGeometry>
        </mxCell>
        <mxCell id="zd6AvIp-qwFRRj_zyXv2-13" value="" style="endArrow=none;html=1;rounded=0;entryX=1;entryY=0;entryDx=0;entryDy=0;exitX=0.25;exitY=1;exitDx=0;exitDy=0;" parent="1" source="ex6ODeGvGHaaBn46lhsk-8" target="GRqxCG2405LfjTbJEl8U-3" edge="1">
          <mxGeometry relative="1" as="geometry">
            <mxPoint x="-160" y="755.08" as="sourcePoint" />
            <mxPoint y="755.08" as="targetPoint" />
          </mxGeometry>
        </mxCell>
        <mxCell id="zd6AvIp-qwFRRj_zyXv2-14" value="1" style="resizable=0;html=1;align=right;verticalAlign=bottom;" parent="zd6AvIp-qwFRRj_zyXv2-13" connectable="0" vertex="1">
          <mxGeometry x="1" relative="1" as="geometry">
            <mxPoint x="15" y="-15" as="offset" />
          </mxGeometry>
        </mxCell>
        <mxCell id="ex6ODeGvGHaaBn46lhsk-50" value="has a" style="rhombus;whiteSpace=wrap;html=1;" parent="1" vertex="1">
          <mxGeometry x="242.50000000000003" y="495.1700000000001" width="80" height="80" as="geometry" />
        </mxCell>
        <mxCell id="eZPHxnWO9H3PoSEfR6vX-13" value="" style="shape=link;html=1;rounded=0;exitX=0;exitY=0.5;exitDx=0;exitDy=0;entryX=1;entryY=0.5;entryDx=0;entryDy=0;" parent="1" source="ex6ODeGvGHaaBn46lhsk-50" target="ex6ODeGvGHaaBn46lhsk-8" edge="1">
          <mxGeometry relative="1" as="geometry">
            <mxPoint x="132" y="680" as="sourcePoint" />
            <mxPoint x="292" y="680" as="targetPoint" />
          </mxGeometry>
        </mxCell>
        <mxCell id="eZPHxnWO9H3PoSEfR6vX-14" value="M" style="resizable=0;html=1;align=left;verticalAlign=bottom;" parent="eZPHxnWO9H3PoSEfR6vX-13" connectable="0" vertex="1">
          <mxGeometry x="-1" relative="1" as="geometry">
            <mxPoint x="-11" as="offset" />
          </mxGeometry>
        </mxCell>
        <mxCell id="eZPHxnWO9H3PoSEfR6vX-16" value="" style="shape=link;html=1;rounded=0;entryX=1;entryY=0.5;entryDx=0;entryDy=0;exitX=0;exitY=0.5;exitDx=0;exitDy=0;" parent="1" source="ex6ODeGvGHaaBn46lhsk-5" target="ex6ODeGvGHaaBn46lhsk-50" edge="1">
          <mxGeometry relative="1" as="geometry">
            <mxPoint x="258" y="694.08" as="sourcePoint" />
            <mxPoint x="418" y="694.08" as="targetPoint" />
          </mxGeometry>
        </mxCell>
        <mxCell id="eZPHxnWO9H3PoSEfR6vX-17" value="N" style="resizable=0;html=1;align=right;verticalAlign=bottom;" parent="eZPHxnWO9H3PoSEfR6vX-16" connectable="0" vertex="1">
          <mxGeometry x="1" relative="1" as="geometry">
            <mxPoint x="9" as="offset" />
          </mxGeometry>
        </mxCell>
        <mxCell id="Z0diHhCHHdHb7VZK64Az-24" value="" style="shape=stencil(lVjLchpBDPwarqp5S3N2nP9wlXGgQsCFyevvI2oLwk4vTfm2LNLuqLvVo9lVfvrYvLyvVyl8nI6H7+vf29fTZpW/rFLa7jfr4/bkV6v8vMpPb4fj+tvx8HP/Ov1+fzlHnq9+HH6dn/BnygsSwjkphb/TjZwkTXe+TvG77f4m3v9N8/gqtbP4pvN4k27347PkPIsvUYw8P4vWeXy+rHAxvo71liraWLwN6zHJ8X58G+utQazej1fpczxrkq7347vE4fleEcEzhrGAqpTgmC7Puyb0C8bLCUBBc8oIpBE4aEUKwTQCqK1JzSTBRhU1k1ZIQpc6L1qjRCZrgFUdBrKkBLBqpcLATlClykhlrMGCVAKrazXNiTPvVlaDSp0TZ/Uix+UEUKu5+Fg3A6zWqTTcrYb+6U4ckXcGlDo3jAzi6+XyzuUEG/uhN6qlAkV3lUIaqIA0OjelAi7WnRkivoI1XDtk2SbjiFIM161lOQNc4GEGdPWjDDei9Kky3IgGwT4AqunY1k4F84EGTuNkG1mSgnF4QiBvUFQ4159iDVzhijVkaq+GNSTJxDgMawjSCEoGXWomlfSQoTU1umt10JIvku2LHazJ+GjVlwyc7e0d2tqprISHDkxrpQ3UYTxxOTJr6mAcLnimpQ48+N7eGawgvpbpRHljEjcDSuBrGl7h1hP4mj43lSFMPvZFtiQgonAnQ6oLtw0UUykS2CQKXumjOpvKvCGG8eHBWQBbzjdjRpwBcTlLYT4DsPoE0kkN6DOJT2UG25wfKQqrAcbp8yRINncDWBOfXQ1g9fGXMW3QQJH3qIK8Y7mo694WNNTgxxAlRSvMrn7QYedQBR6MKkPxVCOZGJ/7og7S4xDhwCSNrR84GEcfv/h/yH/b7nbTN4Lb/8ePAn5r+qCQn/8B);fillColor=none;sketch=1;hachureGap=4;jiggle=2;curveFitting=1;fontFamily=Architects Daughter;fontSource=https%3A%2F%2Ffonts.googleapis.com%2Fcss%3Ffamily%3DArchitects%2BDaughter;fontSize=20;rotation=-15;" parent="1" vertex="1">
          <mxGeometry x="420" y="475.33" width="20.08" height="19.67" as="geometry" />
        </mxCell>
        <mxCell id="eZPHxnWO9H3PoSEfR6vX-21" value="" style="endArrow=none;html=1;rounded=0;entryX=0.5;entryY=0;entryDx=0;entryDy=0;" parent="1" target="b0EoOKl0pUxKoFHr_qgT-12" edge="1">
          <mxGeometry relative="1" as="geometry">
            <mxPoint x="510" y="625" as="sourcePoint" />
            <mxPoint x="550" y="690" as="targetPoint" />
          </mxGeometry>
        </mxCell>
        <mxCell id="eZPHxnWO9H3PoSEfR6vX-22" value="M" style="resizable=0;html=1;align=right;verticalAlign=bottom;" parent="eZPHxnWO9H3PoSEfR6vX-21" connectable="0" vertex="1">
          <mxGeometry x="1" relative="1" as="geometry">
            <mxPoint x="14" y="-10" as="offset" />
          </mxGeometry>
        </mxCell>
        <mxCell id="eZPHxnWO9H3PoSEfR6vX-23" value="" style="endArrow=none;html=1;rounded=0;entryX=0;entryY=1;entryDx=0;entryDy=0;exitX=1;exitY=0;exitDx=0;exitDy=0;" parent="1" source="ex6ODeGvGHaaBn46lhsk-7" target="b0EoOKl0pUxKoFHr_qgT-12" edge="1">
          <mxGeometry relative="1" as="geometry">
            <mxPoint x="188" y="919.5" as="sourcePoint" />
            <mxPoint x="348" y="919.5" as="targetPoint" />
          </mxGeometry>
        </mxCell>
        <mxCell id="eZPHxnWO9H3PoSEfR6vX-24" value="N" style="resizable=0;html=1;align=right;verticalAlign=bottom;" parent="eZPHxnWO9H3PoSEfR6vX-23" connectable="0" vertex="1">
          <mxGeometry x="1" relative="1" as="geometry">
            <mxPoint x="-20" y="10" as="offset" />
          </mxGeometry>
        </mxCell>
        <mxCell id="b0EoOKl0pUxKoFHr_qgT-15" value="performs" style="rhombus;whiteSpace=wrap;html=1;" parent="1" vertex="1">
          <mxGeometry x="-16.25" y="920" width="80" height="80" as="geometry" />
        </mxCell>
        <mxCell id="eZPHxnWO9H3PoSEfR6vX-31" value="" style="endArrow=none;html=1;rounded=0;exitX=0;exitY=0;exitDx=0;exitDy=0;" parent="1" source="ex6ODeGvGHaaBn46lhsk-7" target="b0EoOKl0pUxKoFHr_qgT-15" edge="1">
          <mxGeometry relative="1" as="geometry">
            <mxPoint x="89" y="959.5" as="sourcePoint" />
            <mxPoint x="51.539999999999964" y="941.04" as="targetPoint" />
          </mxGeometry>
        </mxCell>
        <mxCell id="eZPHxnWO9H3PoSEfR6vX-32" value="N" style="resizable=0;html=1;align=right;verticalAlign=bottom;" parent="eZPHxnWO9H3PoSEfR6vX-31" connectable="0" vertex="1">
          <mxGeometry x="1" relative="1" as="geometry">
            <mxPoint x="30" y="10" as="offset" />
          </mxGeometry>
        </mxCell>
        <mxCell id="eZPHxnWO9H3PoSEfR6vX-33" value="" style="endArrow=none;html=1;rounded=0;entryX=0.5;entryY=0;entryDx=0;entryDy=0;exitX=0.75;exitY=1;exitDx=0;exitDy=0;" parent="1" source="ex6ODeGvGHaaBn46lhsk-8" target="b0EoOKl0pUxKoFHr_qgT-15" edge="1">
          <mxGeometry relative="1" as="geometry">
            <mxPoint x="-80" y="694.08" as="sourcePoint" />
            <mxPoint x="80" y="694.08" as="targetPoint" />
          </mxGeometry>
        </mxCell>
        <mxCell id="eZPHxnWO9H3PoSEfR6vX-34" value="M" style="resizable=0;html=1;align=right;verticalAlign=bottom;" parent="eZPHxnWO9H3PoSEfR6vX-33" connectable="0" vertex="1">
          <mxGeometry x="1" relative="1" as="geometry">
            <mxPoint y="-10" as="offset" />
          </mxGeometry>
        </mxCell>
        <mxCell id="eZPHxnWO9H3PoSEfR6vX-39" value="" style="endArrow=none;html=1;rounded=0;entryX=0;entryY=0.5;entryDx=0;entryDy=0;exitX=1;exitY=0.5;exitDx=0;exitDy=0;" parent="1" source="ex6ODeGvGHaaBn46lhsk-6" target="ex6ODeGvGHaaBn46lhsk-46" edge="1">
          <mxGeometry relative="1" as="geometry">
            <mxPoint x="-480" y="612.58" as="sourcePoint" />
            <mxPoint x="-320" y="612.58" as="targetPoint" />
          </mxGeometry>
        </mxCell>
        <mxCell id="eZPHxnWO9H3PoSEfR6vX-40" value="M" style="resizable=0;html=1;align=right;verticalAlign=bottom;" parent="eZPHxnWO9H3PoSEfR6vX-39" connectable="0" vertex="1">
          <mxGeometry x="1" relative="1" as="geometry" />
        </mxCell>
        <mxCell id="eZPHxnWO9H3PoSEfR6vX-41" value="" style="endArrow=none;html=1;rounded=0;entryX=1;entryY=0.5;entryDx=0;entryDy=0;exitX=0;exitY=0.5;exitDx=0;exitDy=0;" parent="1" source="ex6ODeGvGHaaBn46lhsk-8" target="ex6ODeGvGHaaBn46lhsk-46" edge="1">
          <mxGeometry relative="1" as="geometry">
            <mxPoint x="-210" y="612.58" as="sourcePoint" />
            <mxPoint x="-50" y="612.58" as="targetPoint" />
          </mxGeometry>
        </mxCell>
        <mxCell id="eZPHxnWO9H3PoSEfR6vX-42" value="N" style="resizable=0;html=1;align=right;verticalAlign=bottom;" parent="eZPHxnWO9H3PoSEfR6vX-41" connectable="0" vertex="1">
          <mxGeometry x="1" relative="1" as="geometry">
            <mxPoint x="15" as="offset" />
          </mxGeometry>
        </mxCell>
        <mxCell id="YjGcaw5Ntm2ppvBMO__e-6" value="" style="verticalLabelPosition=bottom;verticalAlign=top;html=1;shape=mxgraph.basic.frame;dx=10;whiteSpace=wrap;fontSize=14;" parent="1" vertex="1">
          <mxGeometry x="1110" y="690" width="180" height="60" as="geometry" />
        </mxCell>
        <mxCell id="MKF441MaXTb0prnAObAt-3" value="" style="endArrow=none;html=1;rounded=0;dashed=1;" parent="1" edge="1">
          <mxGeometry width="50" height="50" relative="1" as="geometry">
            <mxPoint x="1453.52" y="685.3399999999999" as="sourcePoint" />
            <mxPoint x="1523.52" y="685.17" as="targetPoint" />
            <Array as="points">
              <mxPoint x="1497" y="685.17" />
            </Array>
          </mxGeometry>
        </mxCell>
        <mxCell id="YjGcaw5Ntm2ppvBMO__e-16" value="INTERACTION&lt;br&gt;RECORD" style="text;html=1;align=center;verticalAlign=middle;resizable=0;points=[];autosize=1;strokeColor=none;fillColor=none;fontSize=14;" parent="1" vertex="1">
          <mxGeometry x="1143.5" y="695.25" width="120" height="50" as="geometry" />
        </mxCell>
        <mxCell id="YjGcaw5Ntm2ppvBMO__e-17" value="MEDICATION&lt;br&gt;PRESCRIBED" style="rounded=0;whiteSpace=wrap;html=1;fontSize=14;" parent="1" vertex="1">
          <mxGeometry x="207.79" y="715.08" width="129.71" height="40" as="geometry" />
        </mxCell>
        <mxCell id="YjGcaw5Ntm2ppvBMO__e-18" value="1" style="text;html=1;align=center;verticalAlign=middle;resizable=0;points=[];autosize=1;strokeColor=none;fillColor=none;fontSize=14;" parent="1" vertex="1">
          <mxGeometry x="840" y="605.17" width="30" height="30" as="geometry" />
        </mxCell>
        <mxCell id="YjGcaw5Ntm2ppvBMO__e-19" value="1" style="text;html=1;align=center;verticalAlign=middle;resizable=0;points=[];autosize=1;strokeColor=none;fillColor=none;fontSize=14;" parent="1" vertex="1">
          <mxGeometry x="958" y="625.1700000000001" width="30" height="30" as="geometry" />
        </mxCell>
        <mxCell id="rLRTQVDjGqLQhPtuLX02-1" value="" style="endArrow=none;html=1;rounded=0;exitX=1;exitY=0.5;exitDx=0;exitDy=0;entryX=0;entryY=0.5;entryDx=0;entryDy=0;" parent="1" source="ex6ODeGvGHaaBn46lhsk-76" target="ex6ODeGvGHaaBn46lhsk-4" edge="1">
          <mxGeometry width="50" height="50" relative="1" as="geometry">
            <mxPoint x="160" y="330" as="sourcePoint" />
            <mxPoint x="210" y="280" as="targetPoint" />
          </mxGeometry>
        </mxCell>
        <mxCell id="rLRTQVDjGqLQhPtuLX02-2" value="" style="endArrow=none;html=1;rounded=0;entryX=0;entryY=0;entryDx=0;entryDy=0;exitX=0.784;exitY=0.9;exitDx=0;exitDy=0;exitPerimeter=0;" parent="1" source="ex6ODeGvGHaaBn46lhsk-57" target="ex6ODeGvGHaaBn46lhsk-4" edge="1">
          <mxGeometry width="50" height="50" relative="1" as="geometry">
            <mxPoint x="160" y="330" as="sourcePoint" />
            <mxPoint x="210" y="280" as="targetPoint" />
          </mxGeometry>
        </mxCell>
        <mxCell id="rLRTQVDjGqLQhPtuLX02-3" value="" style="endArrow=none;html=1;rounded=0;entryX=0.5;entryY=1;entryDx=0;entryDy=0;exitX=0.5;exitY=0;exitDx=0;exitDy=0;" parent="1" source="ex6ODeGvGHaaBn46lhsk-4" target="ex6ODeGvGHaaBn46lhsk-55" edge="1">
          <mxGeometry width="50" height="50" relative="1" as="geometry">
            <mxPoint x="160" y="330" as="sourcePoint" />
            <mxPoint x="210" y="280" as="targetPoint" />
          </mxGeometry>
        </mxCell>
        <mxCell id="rLRTQVDjGqLQhPtuLX02-4" value="" style="endArrow=none;html=1;rounded=0;entryX=0.939;entryY=0;entryDx=0;entryDy=0;entryPerimeter=0;exitX=0.314;exitY=0.95;exitDx=0;exitDy=0;exitPerimeter=0;" parent="1" source="ex6ODeGvGHaaBn46lhsk-60" target="ex6ODeGvGHaaBn46lhsk-4" edge="1">
          <mxGeometry width="50" height="50" relative="1" as="geometry">
            <mxPoint x="160" y="330" as="sourcePoint" />
            <mxPoint x="210" y="280" as="targetPoint" />
          </mxGeometry>
        </mxCell>
        <mxCell id="sY98af0_FfTnuo9R5cYQ-1" value="" style="endArrow=none;html=1;rounded=0;entryX=0;entryY=0;entryDx=0;entryDy=0;" parent="1" source="ex6ODeGvGHaaBn46lhsk-82" target="ex6ODeGvGHaaBn46lhsk-8" edge="1">
          <mxGeometry width="50" height="50" relative="1" as="geometry">
            <mxPoint x="-30" y="670" as="sourcePoint" />
            <mxPoint x="20" y="620" as="targetPoint" />
          </mxGeometry>
        </mxCell>
        <mxCell id="rLRTQVDjGqLQhPtuLX02-5" value="" style="endArrow=none;html=1;rounded=0;entryX=1;entryY=0;entryDx=0;entryDy=0;exitX=0;exitY=1;exitDx=0;exitDy=0;" parent="1" source="ex6ODeGvGHaaBn46lhsk-4" target="ex6ODeGvGHaaBn46lhsk-72" edge="1">
          <mxGeometry width="50" height="50" relative="1" as="geometry">
            <mxPoint x="110" y="310" as="sourcePoint" />
            <mxPoint x="210" y="280" as="targetPoint" />
          </mxGeometry>
        </mxCell>
        <mxCell id="rLRTQVDjGqLQhPtuLX02-6" value="" style="endArrow=none;html=1;rounded=0;entryX=1;entryY=0.75;entryDx=0;entryDy=0;exitX=0;exitY=0.5;exitDx=0;exitDy=0;" parent="1" source="ex6ODeGvGHaaBn46lhsk-74" target="ex6ODeGvGHaaBn46lhsk-4" edge="1">
          <mxGeometry width="50" height="50" relative="1" as="geometry">
            <mxPoint x="160" y="330" as="sourcePoint" />
            <mxPoint x="210" y="280" as="targetPoint" />
          </mxGeometry>
        </mxCell>
        <mxCell id="sY98af0_FfTnuo9R5cYQ-4" value="" style="endArrow=none;html=1;rounded=0;exitX=1;exitY=0.5;exitDx=0;exitDy=0;entryX=0;entryY=0.5;entryDx=0;entryDy=0;" parent="1" source="7zId03I186Me9R3SvJil-13" target="ex6ODeGvGHaaBn46lhsk-6" edge="1">
          <mxGeometry width="50" height="50" relative="1" as="geometry">
            <mxPoint x="-660" y="630.17" as="sourcePoint" />
            <mxPoint x="-610" y="580.17" as="targetPoint" />
          </mxGeometry>
        </mxCell>
        <mxCell id="rLRTQVDjGqLQhPtuLX02-7" value="" style="endArrow=none;html=1;rounded=0;exitX=0.586;exitY=-0.004;exitDx=0;exitDy=0;exitPerimeter=0;entryX=0;entryY=1;entryDx=0;entryDy=0;" parent="1" source="ex6ODeGvGHaaBn46lhsk-8" target="ex6ODeGvGHaaBn46lhsk-20" edge="1">
          <mxGeometry width="50" height="50" relative="1" as="geometry">
            <mxPoint x="160" y="430" as="sourcePoint" />
            <mxPoint x="270" y="350" as="targetPoint" />
          </mxGeometry>
        </mxCell>
        <mxCell id="sY98af0_FfTnuo9R5cYQ-5" value="" style="endArrow=none;html=1;rounded=0;entryX=0.5;entryY=1;entryDx=0;entryDy=0;exitX=0.5;exitY=0;exitDx=0;exitDy=0;" parent="1" source="7zId03I186Me9R3SvJil-10" target="ex6ODeGvGHaaBn46lhsk-6" edge="1">
          <mxGeometry width="50" height="50" relative="1" as="geometry">
            <mxPoint x="-770" y="755.08" as="sourcePoint" />
            <mxPoint x="-720" y="705.08" as="targetPoint" />
          </mxGeometry>
        </mxCell>
        <mxCell id="sY98af0_FfTnuo9R5cYQ-6" value="" style="endArrow=none;html=1;rounded=0;exitX=0.5;exitY=0;exitDx=0;exitDy=0;entryX=0.5;entryY=1;entryDx=0;entryDy=0;" parent="1" source="ex6ODeGvGHaaBn46lhsk-6" target="7zId03I186Me9R3SvJil-4" edge="1">
          <mxGeometry width="50" height="50" relative="1" as="geometry">
            <mxPoint x="-410" y="710" as="sourcePoint" />
            <mxPoint x="-360" y="660" as="targetPoint" />
          </mxGeometry>
        </mxCell>
        <mxCell id="rLRTQVDjGqLQhPtuLX02-8" value="" style="endArrow=none;html=1;rounded=0;entryX=1;entryY=1;entryDx=0;entryDy=0;exitX=0.414;exitY=0.021;exitDx=0;exitDy=0;exitPerimeter=0;" parent="1" source="ex6ODeGvGHaaBn46lhsk-5" target="ex6ODeGvGHaaBn46lhsk-20" edge="1">
          <mxGeometry width="50" height="50" relative="1" as="geometry">
            <mxPoint x="540" y="580" as="sourcePoint" />
            <mxPoint x="210" y="380" as="targetPoint" />
          </mxGeometry>
        </mxCell>
        <mxCell id="sY98af0_FfTnuo9R5cYQ-8" value="" style="endArrow=none;html=1;rounded=0;entryX=0.321;entryY=-0.029;entryDx=0;entryDy=0;entryPerimeter=0;" parent="1" source="ex6ODeGvGHaaBn46lhsk-80" target="ex6ODeGvGHaaBn46lhsk-8" edge="1">
          <mxGeometry width="50" height="50" relative="1" as="geometry">
            <mxPoint x="-40" y="670" as="sourcePoint" />
            <mxPoint x="-20" y="580" as="targetPoint" />
          </mxGeometry>
        </mxCell>
        <mxCell id="rLRTQVDjGqLQhPtuLX02-9" value="" style="endArrow=none;html=1;rounded=0;entryX=0.433;entryY=0.987;entryDx=0;entryDy=0;entryPerimeter=0;exitX=0.557;exitY=0.021;exitDx=0;exitDy=0;exitPerimeter=0;" parent="1" source="ex6ODeGvGHaaBn46lhsk-5" target="M5ZHULjdXG0Ne1l3_ViM-58" edge="1">
          <mxGeometry width="50" height="50" relative="1" as="geometry">
            <mxPoint x="593.0199999999995" y="461.98" as="sourcePoint" />
            <mxPoint x="210" y="480" as="targetPoint" />
          </mxGeometry>
        </mxCell>
        <mxCell id="IuBUOJz-iMoEtzLe8rwM-4" value="" style="endArrow=none;html=1;rounded=0;fontSize=12;startSize=8;endSize=8;curved=1;exitX=0.579;exitY=-0.057;exitDx=0;exitDy=0;exitPerimeter=0;entryX=0.25;entryY=1;entryDx=0;entryDy=0;" parent="1" source="M5ZHULjdXG0Ne1l3_ViM-67" target="YjGcaw5Ntm2ppvBMO__e-17" edge="1">
          <mxGeometry width="50" height="50" relative="1" as="geometry">
            <mxPoint x="212.79" y="730" as="sourcePoint" />
            <mxPoint x="263" y="680" as="targetPoint" />
          </mxGeometry>
        </mxCell>
        <mxCell id="rLRTQVDjGqLQhPtuLX02-10" value="" style="endArrow=none;html=1;rounded=0;entryX=0.217;entryY=0.925;entryDx=0;entryDy=0;entryPerimeter=0;exitX=0.75;exitY=0;exitDx=0;exitDy=0;" parent="1" source="ex6ODeGvGHaaBn46lhsk-5" target="M5ZHULjdXG0Ne1l3_ViM-57" edge="1">
          <mxGeometry width="50" height="50" relative="1" as="geometry">
            <mxPoint x="560" y="580" as="sourcePoint" />
            <mxPoint x="738" y="445" as="targetPoint" />
          </mxGeometry>
        </mxCell>
        <mxCell id="sY98af0_FfTnuo9R5cYQ-9" value="" style="endArrow=none;html=1;rounded=0;exitX=0.431;exitY=0.011;exitDx=0;exitDy=0;exitPerimeter=0;entryX=0.5;entryY=1;entryDx=0;entryDy=0;" parent="1" source="ex6ODeGvGHaaBn46lhsk-65" target="ex6ODeGvGHaaBn46lhsk-8" edge="1">
          <mxGeometry width="50" height="50" relative="1" as="geometry">
            <mxPoint x="-40" y="670" as="sourcePoint" />
            <mxPoint x="10" y="640" as="targetPoint" />
          </mxGeometry>
        </mxCell>
        <mxCell id="IuBUOJz-iMoEtzLe8rwM-5" value="" style="endArrow=none;html=1;rounded=0;fontSize=12;startSize=8;endSize=8;curved=1;exitX=0.5;exitY=0;exitDx=0;exitDy=0;entryX=0.588;entryY=1.006;entryDx=0;entryDy=0;entryPerimeter=0;" parent="1" source="M5ZHULjdXG0Ne1l3_ViM-70" target="YjGcaw5Ntm2ppvBMO__e-17" edge="1">
          <mxGeometry width="50" height="50" relative="1" as="geometry">
            <mxPoint x="271.46" y="730" as="sourcePoint" />
            <mxPoint x="321.46" y="680" as="targetPoint" />
          </mxGeometry>
        </mxCell>
        <mxCell id="IuBUOJz-iMoEtzLe8rwM-6" value="" style="endArrow=none;html=1;rounded=0;fontSize=12;startSize=8;endSize=8;curved=1;entryX=0;entryY=0;entryDx=0;entryDy=0;exitX=0.852;exitY=1.033;exitDx=0;exitDy=0;exitPerimeter=0;" parent="1" source="YjGcaw5Ntm2ppvBMO__e-17" target="ex6ODeGvGHaaBn46lhsk-102" edge="1">
          <mxGeometry width="50" height="50" relative="1" as="geometry">
            <mxPoint x="370.29" y="700" as="sourcePoint" />
            <mxPoint x="420.29" y="650" as="targetPoint" />
          </mxGeometry>
        </mxCell>
        <mxCell id="rLRTQVDjGqLQhPtuLX02-14" value="" style="endArrow=none;html=1;rounded=0;exitX=0;exitY=0;exitDx=0;exitDy=0;entryX=1;entryY=0.5;entryDx=0;entryDy=0;" parent="1" source="ex6ODeGvGHaaBn46lhsk-68" target="rLRTQVDjGqLQhPtuLX02-34" edge="1">
          <mxGeometry width="50" height="50" relative="1" as="geometry">
            <mxPoint x="416.5" y="82.49999999999989" as="sourcePoint" />
            <mxPoint x="719" y="282.3299999999999" as="targetPoint" />
          </mxGeometry>
        </mxCell>
        <mxCell id="sY98af0_FfTnuo9R5cYQ-16" value="" style="endArrow=none;html=1;rounded=0;exitX=0.935;exitY=1.033;exitDx=0;exitDy=0;exitPerimeter=0;entryX=0.293;entryY=0.04;entryDx=0;entryDy=0;entryPerimeter=0;" parent="1" source="YjGcaw5Ntm2ppvBMO__e-6" target="M5ZHULjdXG0Ne1l3_ViM-36" edge="1">
          <mxGeometry width="50" height="50" relative="1" as="geometry">
            <mxPoint x="1220" y="790" as="sourcePoint" />
            <mxPoint x="1280" y="870" as="targetPoint" />
          </mxGeometry>
        </mxCell>
        <mxCell id="sY98af0_FfTnuo9R5cYQ-17" value="" style="endArrow=none;html=1;rounded=0;exitX=1;exitY=1;exitDx=0;exitDy=0;exitPerimeter=0;entryX=0.06;entryY=0.215;entryDx=0;entryDy=0;entryPerimeter=0;" parent="1" source="YjGcaw5Ntm2ppvBMO__e-6" target="M5ZHULjdXG0Ne1l3_ViM-39" edge="1">
          <mxGeometry width="50" height="50" relative="1" as="geometry">
            <mxPoint x="1180" y="810" as="sourcePoint" />
            <mxPoint x="1220" y="890" as="targetPoint" />
          </mxGeometry>
        </mxCell>
        <mxCell id="sY98af0_FfTnuo9R5cYQ-18" value="" style="endArrow=none;html=1;rounded=0;exitX=1;exitY=0.5;exitDx=0;exitDy=0;exitPerimeter=0;entryX=0;entryY=0.5;entryDx=0;entryDy=0;" parent="1" source="YjGcaw5Ntm2ppvBMO__e-6" target="M5ZHULjdXG0Ne1l3_ViM-37" edge="1">
          <mxGeometry width="50" height="50" relative="1" as="geometry">
            <mxPoint x="1150" y="850" as="sourcePoint" />
            <mxPoint x="1160" y="870" as="targetPoint" />
          </mxGeometry>
        </mxCell>
        <mxCell id="IuBUOJz-iMoEtzLe8rwM-8" value="" style="endArrow=none;html=1;rounded=0;fontSize=12;startSize=8;endSize=8;curved=1;exitX=1;exitY=0.5;exitDx=0;exitDy=0;entryX=0;entryY=0.5;entryDx=0;entryDy=0;" parent="1" source="ex6ODeGvGHaaBn46lhsk-7" target="ex6ODeGvGHaaBn46lhsk-89" edge="1">
          <mxGeometry width="50" height="50" relative="1" as="geometry">
            <mxPoint x="323" y="1110" as="sourcePoint" />
            <mxPoint x="390" y="1080" as="targetPoint" />
          </mxGeometry>
        </mxCell>
        <mxCell id="sY98af0_FfTnuo9R5cYQ-19" value="" style="endArrow=none;html=1;rounded=0;exitX=1;exitY=0;exitDx=0;exitDy=0;exitPerimeter=0;entryX=0;entryY=0.5;entryDx=0;entryDy=0;" parent="1" source="YjGcaw5Ntm2ppvBMO__e-6" target="M5ZHULjdXG0Ne1l3_ViM-38" edge="1">
          <mxGeometry width="50" height="50" relative="1" as="geometry">
            <mxPoint x="1280" y="790" as="sourcePoint" />
            <mxPoint x="1330" y="740" as="targetPoint" />
          </mxGeometry>
        </mxCell>
        <mxCell id="IuBUOJz-iMoEtzLe8rwM-9" value="" style="endArrow=none;html=1;rounded=0;fontSize=12;startSize=8;endSize=8;curved=1;entryX=0;entryY=0.382;entryDx=0;entryDy=0;entryPerimeter=0;" parent="1" target="ex6ODeGvGHaaBn46lhsk-92" edge="1">
          <mxGeometry width="50" height="50" relative="1" as="geometry">
            <mxPoint x="325" y="1100" as="sourcePoint" />
            <mxPoint x="395" y="1110" as="targetPoint" />
          </mxGeometry>
        </mxCell>
        <mxCell id="sY98af0_FfTnuo9R5cYQ-22" value="" style="endArrow=none;html=1;rounded=0;entryX=0;entryY=0;entryDx=0;entryDy=0;exitX=1;exitY=1;exitDx=0;exitDy=0;" parent="1" source="ex6ODeGvGHaaBn46lhsk-5" target="M5ZHULjdXG0Ne1l3_ViM-26" edge="1">
          <mxGeometry width="50" height="50" relative="1" as="geometry">
            <mxPoint x="620" y="680" as="sourcePoint" />
            <mxPoint x="670" y="630" as="targetPoint" />
          </mxGeometry>
        </mxCell>
        <mxCell id="sY98af0_FfTnuo9R5cYQ-23" value="" style="endArrow=none;html=1;rounded=0;exitX=0.952;exitY=0.251;exitDx=0;exitDy=0;entryX=0;entryY=0.5;entryDx=0;entryDy=0;exitPerimeter=0;" parent="1" source="rLRTQVDjGqLQhPtuLX02-34" target="ex6ODeGvGHaaBn46lhsk-69" edge="1">
          <mxGeometry width="50" height="50" relative="1" as="geometry">
            <mxPoint x="729" y="242.32999999999993" as="sourcePoint" />
            <mxPoint x="559" y="72.32999999999993" as="targetPoint" />
          </mxGeometry>
        </mxCell>
        <mxCell id="IuBUOJz-iMoEtzLe8rwM-10" value="" style="endArrow=none;html=1;rounded=0;fontSize=12;startSize=8;endSize=8;curved=1;entryX=0.381;entryY=0;entryDx=0;entryDy=0;entryPerimeter=0;exitX=0.814;exitY=1.025;exitDx=0;exitDy=0;exitPerimeter=0;" parent="1" source="ex6ODeGvGHaaBn46lhsk-7" target="ex6ODeGvGHaaBn46lhsk-87" edge="1">
          <mxGeometry width="50" height="50" relative="1" as="geometry">
            <mxPoint x="285.59" y="1170" as="sourcePoint" />
            <mxPoint x="335.59" y="1120" as="targetPoint" />
          </mxGeometry>
        </mxCell>
        <mxCell id="rLRTQVDjGqLQhPtuLX02-16" value="" style="endArrow=none;html=1;rounded=0;entryX=0;entryY=1;entryDx=0;entryDy=0;exitX=1;exitY=0;exitDx=0;exitDy=0;" parent="1" source="M5ZHULjdXG0Ne1l3_ViM-24" target="ex6ODeGvGHaaBn46lhsk-8" edge="1">
          <mxGeometry width="50" height="50" relative="1" as="geometry">
            <mxPoint x="-175" y="672.58" as="sourcePoint" />
            <mxPoint x="-125" y="622.58" as="targetPoint" />
          </mxGeometry>
        </mxCell>
        <mxCell id="IuBUOJz-iMoEtzLe8rwM-11" value="" style="endArrow=none;html=1;rounded=0;fontSize=12;startSize=8;endSize=8;curved=1;entryX=0.07;entryY=0.25;entryDx=0;entryDy=0;entryPerimeter=0;exitX=1;exitY=1;exitDx=0;exitDy=0;" parent="1" source="ex6ODeGvGHaaBn46lhsk-7" target="ex6ODeGvGHaaBn46lhsk-94" edge="1">
          <mxGeometry width="50" height="50" relative="1" as="geometry">
            <mxPoint x="340" y="1170" as="sourcePoint" />
            <mxPoint x="390" y="1120" as="targetPoint" />
          </mxGeometry>
        </mxCell>
        <mxCell id="rLRTQVDjGqLQhPtuLX02-17" value="" style="endArrow=none;html=1;rounded=0;entryX=0;entryY=1;entryDx=0;entryDy=0;" parent="1" target="GRqxCG2405LfjTbJEl8U-3" edge="1">
          <mxGeometry width="50" height="50" relative="1" as="geometry">
            <mxPoint x="-320" y="880" as="sourcePoint" />
            <mxPoint x="-420" y="800" as="targetPoint" />
          </mxGeometry>
        </mxCell>
        <mxCell id="IuBUOJz-iMoEtzLe8rwM-12" value="" style="endArrow=none;html=1;rounded=0;fontSize=12;startSize=8;endSize=8;curved=1;exitX=0.914;exitY=1.05;exitDx=0;exitDy=0;exitPerimeter=0;entryX=0.362;entryY=0;entryDx=0;entryDy=0;entryPerimeter=0;" parent="1" source="ex6ODeGvGHaaBn46lhsk-7" target="ex6ODeGvGHaaBn46lhsk-96" edge="1">
          <mxGeometry width="50" height="50" relative="1" as="geometry">
            <mxPoint x="323" y="1195" as="sourcePoint" />
            <mxPoint x="465" y="1250" as="targetPoint" />
          </mxGeometry>
        </mxCell>
        <mxCell id="IuBUOJz-iMoEtzLe8rwM-13" value="" style="endArrow=none;html=1;rounded=0;fontSize=12;startSize=8;endSize=8;curved=1;exitX=0.309;exitY=0.073;exitDx=0;exitDy=0;exitPerimeter=0;" parent="1" source="M5ZHULjdXG0Ne1l3_ViM-49" edge="1">
          <mxGeometry width="50" height="50" relative="1" as="geometry">
            <mxPoint x="305" y="1270" as="sourcePoint" />
            <mxPoint x="285" y="1110" as="targetPoint" />
          </mxGeometry>
        </mxCell>
        <mxCell id="IuBUOJz-iMoEtzLe8rwM-15" value="" style="endArrow=none;html=1;rounded=0;fontSize=12;startSize=8;endSize=8;curved=1;entryX=0.25;entryY=1;entryDx=0;entryDy=0;exitX=0.607;exitY=0.017;exitDx=0;exitDy=0;exitPerimeter=0;" parent="1" source="M5ZHULjdXG0Ne1l3_ViM-53" target="ex6ODeGvGHaaBn46lhsk-7" edge="1">
          <mxGeometry width="50" height="50" relative="1" as="geometry">
            <mxPoint x="95" y="1205" as="sourcePoint" />
            <mxPoint x="145" y="1155" as="targetPoint" />
          </mxGeometry>
        </mxCell>
        <mxCell id="IuBUOJz-iMoEtzLe8rwM-16" value="" style="endArrow=none;html=1;rounded=0;fontSize=12;startSize=8;endSize=8;curved=1;entryX=0;entryY=0.75;entryDx=0;entryDy=0;exitX=1;exitY=0.5;exitDx=0;exitDy=0;" parent="1" source="ex6ODeGvGHaaBn46lhsk-85" target="ex6ODeGvGHaaBn46lhsk-7" edge="1">
          <mxGeometry width="50" height="50" relative="1" as="geometry">
            <mxPoint x="84.28999999999999" y="1120" as="sourcePoint" />
            <mxPoint x="134.29" y="1070" as="targetPoint" />
          </mxGeometry>
        </mxCell>
        <mxCell id="rLRTQVDjGqLQhPtuLX02-19" value="" style="endArrow=none;html=1;rounded=0;entryX=0;entryY=0.75;entryDx=0;entryDy=0;exitX=1;exitY=0.5;exitDx=0;exitDy=0;startArrow=none;" parent="1" source="rLRTQVDjGqLQhPtuLX02-18" target="ex6ODeGvGHaaBn46lhsk-5" edge="1">
          <mxGeometry relative="1" as="geometry">
            <mxPoint x="327.67" y="632.08" as="sourcePoint" />
            <mxPoint x="487.67" y="632.08" as="targetPoint" />
          </mxGeometry>
        </mxCell>
        <mxCell id="rLRTQVDjGqLQhPtuLX02-21" value="N" style="resizable=0;html=1;whiteSpace=wrap;align=right;verticalAlign=bottom;" parent="rLRTQVDjGqLQhPtuLX02-19" connectable="0" vertex="1">
          <mxGeometry x="1" relative="1" as="geometry">
            <mxPoint x="-138" y="45" as="offset" />
          </mxGeometry>
        </mxCell>
        <mxCell id="rLRTQVDjGqLQhPtuLX02-18" value="gets" style="rhombus;whiteSpace=wrap;html=1;" parent="1" vertex="1">
          <mxGeometry x="323" y="570.0799999999999" width="80" height="80" as="geometry" />
        </mxCell>
        <mxCell id="rLRTQVDjGqLQhPtuLX02-25" value="" style="endArrow=none;html=1;rounded=0;exitX=1;exitY=0.75;exitDx=0;exitDy=0;startArrow=none;entryX=0.25;entryY=0;entryDx=0;entryDy=0;" parent="1" source="IuBUOJz-iMoEtzLe8rwM-17" target="YjGcaw5Ntm2ppvBMO__e-17" edge="1">
          <mxGeometry relative="1" as="geometry">
            <mxPoint x="90" y="610" as="sourcePoint" />
            <mxPoint x="240" y="710" as="targetPoint" />
          </mxGeometry>
        </mxCell>
        <mxCell id="rLRTQVDjGqLQhPtuLX02-27" value="N" style="resizable=0;html=1;whiteSpace=wrap;align=right;verticalAlign=bottom;" parent="rLRTQVDjGqLQhPtuLX02-25" connectable="0" vertex="1">
          <mxGeometry x="1" relative="1" as="geometry">
            <mxPoint x="-12" y="-50" as="offset" />
          </mxGeometry>
        </mxCell>
        <mxCell id="rLRTQVDjGqLQhPtuLX02-22" value="" style="endArrow=none;html=1;rounded=0;entryX=0;entryY=0.75;entryDx=0;entryDy=0;exitX=0.811;exitY=0.023;exitDx=0;exitDy=0;exitPerimeter=0;" parent="1" source="YjGcaw5Ntm2ppvBMO__e-17" target="rLRTQVDjGqLQhPtuLX02-18" edge="1">
          <mxGeometry relative="1" as="geometry">
            <mxPoint x="310" y="710" as="sourcePoint" />
            <mxPoint x="480" y="615" as="targetPoint" />
          </mxGeometry>
        </mxCell>
        <mxCell id="rLRTQVDjGqLQhPtuLX02-23" value="M" style="resizable=0;html=1;whiteSpace=wrap;align=left;verticalAlign=bottom;" parent="rLRTQVDjGqLQhPtuLX02-22" connectable="0" vertex="1">
          <mxGeometry x="-1" relative="1" as="geometry">
            <mxPoint x="90" y="-106" as="offset" />
          </mxGeometry>
        </mxCell>
        <mxCell id="rLRTQVDjGqLQhPtuLX02-28" value="" style="endArrow=none;html=1;rounded=0;exitX=1;exitY=0.75;exitDx=0;exitDy=0;entryX=0;entryY=0.5;entryDx=0;entryDy=0;" parent="1" source="ex6ODeGvGHaaBn46lhsk-8" target="IuBUOJz-iMoEtzLe8rwM-17" edge="1">
          <mxGeometry relative="1" as="geometry">
            <mxPoint x="80" y="615" as="sourcePoint" />
            <mxPoint x="216" y="663" as="targetPoint" />
          </mxGeometry>
        </mxCell>
        <mxCell id="rLRTQVDjGqLQhPtuLX02-29" value="M" style="resizable=0;html=1;whiteSpace=wrap;align=left;verticalAlign=bottom;" parent="rLRTQVDjGqLQhPtuLX02-28" connectable="0" vertex="1">
          <mxGeometry x="-1" relative="1" as="geometry">
            <mxPoint x="69" y="-5" as="offset" />
          </mxGeometry>
        </mxCell>
        <mxCell id="IuBUOJz-iMoEtzLe8rwM-17" value="&lt;font size=&quot;1&quot;&gt;prescribes&lt;/font&gt;" style="rhombus;whiteSpace=wrap;html=1;fontSize=16;" parent="1" vertex="1">
          <mxGeometry x="162.5" y="570.08" width="80" height="80" as="geometry" />
        </mxCell>
        <mxCell id="rLRTQVDjGqLQhPtuLX02-31" value="Condition" style="ellipse;whiteSpace=wrap;html=1;align=center;dashed=1;" parent="1" vertex="1">
          <mxGeometry x="697" y="535" width="102" height="40" as="geometry" />
        </mxCell>
        <mxCell id="sY98af0_FfTnuo9R5cYQ-30" value="" style="endArrow=none;html=1;rounded=0;exitX=1;exitY=0.5;exitDx=0;exitDy=0;entryX=0;entryY=0.5;entryDx=0;entryDy=0;" parent="1" source="ex6ODeGvGHaaBn46lhsk-5" target="rLRTQVDjGqLQhPtuLX02-31" edge="1">
          <mxGeometry width="50" height="50" relative="1" as="geometry">
            <mxPoint x="830" y="580" as="sourcePoint" />
            <mxPoint x="880" y="530" as="targetPoint" />
          </mxGeometry>
        </mxCell>
        <mxCell id="sY98af0_FfTnuo9R5cYQ-31" value="" style="endArrow=none;html=1;rounded=0;exitX=1;exitY=0;exitDx=0;exitDy=0;entryX=0;entryY=0.5;entryDx=0;entryDy=0;" parent="1" source="M5ZHULjdXG0Ne1l3_ViM-63" target="YjGcaw5Ntm2ppvBMO__e-17" edge="1">
          <mxGeometry width="50" height="50" relative="1" as="geometry">
            <mxPoint x="280" y="760" as="sourcePoint" />
            <mxPoint x="330" y="710" as="targetPoint" />
          </mxGeometry>
        </mxCell>
        <mxCell id="rLRTQVDjGqLQhPtuLX02-32" value="Phone" style="ellipse;whiteSpace=wrap;html=1;" parent="1" vertex="1">
          <mxGeometry x="532.5" y="767.3399999999999" width="100" height="70" as="geometry" />
        </mxCell>
        <mxCell id="rLRTQVDjGqLQhPtuLX02-33" value="" style="endArrow=none;html=1;rounded=0;entryX=0.4;entryY=1.021;entryDx=0;entryDy=0;entryPerimeter=0;exitX=0.5;exitY=0;exitDx=0;exitDy=0;" parent="1" source="rLRTQVDjGqLQhPtuLX02-32" target="ex6ODeGvGHaaBn46lhsk-5" edge="1">
          <mxGeometry width="50" height="50" relative="1" as="geometry">
            <mxPoint x="532.5" y="730.17" as="sourcePoint" />
            <mxPoint x="582.5" y="680.17" as="targetPoint" />
          </mxGeometry>
        </mxCell>
        <mxCell id="rLRTQVDjGqLQhPtuLX02-34" value="Address" style="ellipse;whiteSpace=wrap;html=1;" parent="1" vertex="1">
          <mxGeometry x="480" y="132.32999999999998" width="110" height="65.08" as="geometry" />
        </mxCell>
        <mxCell id="rLRTQVDjGqLQhPtuLX02-35" value="" style="endArrow=none;html=1;rounded=0;exitX=1;exitY=0.25;exitDx=0;exitDy=0;entryX=0.023;entryY=0.654;entryDx=0;entryDy=0;entryPerimeter=0;" parent="1" source="ex6ODeGvGHaaBn46lhsk-4" target="rLRTQVDjGqLQhPtuLX02-34" edge="1">
          <mxGeometry width="50" height="50" relative="1" as="geometry">
            <mxPoint x="439" y="74.40999999999997" as="sourcePoint" />
            <mxPoint x="551.5" y="46.90999999999997" as="targetPoint" />
          </mxGeometry>
        </mxCell>
        <mxCell id="Bhoyn6dy_ex8HsSdMJCQ-3" value="" style="endArrow=none;html=1;rounded=0;exitX=1;exitY=0.75;exitDx=0;exitDy=0;entryX=0.143;entryY=0.353;entryDx=0;entryDy=0;entryPerimeter=0;" parent="1" source="ex6ODeGvGHaaBn46lhsk-5" target="Bhoyn6dy_ex8HsSdMJCQ-1" edge="1">
          <mxGeometry width="50" height="50" relative="1" as="geometry">
            <mxPoint x="620" y="615" as="sourcePoint" />
            <mxPoint x="864.3000000000002" y="670.3" as="targetPoint" />
          </mxGeometry>
        </mxCell>
        <mxCell id="Bhoyn6dy_ex8HsSdMJCQ-1" value="has a" style="shape=rhombus;double=1;perimeter=rhombusPerimeter;whiteSpace=wrap;html=1;align=center;" parent="1" vertex="1">
          <mxGeometry x="858" y="594.67" width="100" height="95.33" as="geometry" />
        </mxCell>
        <mxCell id="Bhoyn6dy_ex8HsSdMJCQ-7" value="" style="endArrow=none;html=1;rounded=0;entryX=0.5;entryY=0;entryDx=0;entryDy=0;exitX=0.415;exitY=1.045;exitDx=0;exitDy=0;exitPerimeter=0;" parent="1" source="Bhoyn6dy_ex8HsSdMJCQ-8" target="rLRTQVDjGqLQhPtuLX02-34" edge="1">
          <mxGeometry width="50" height="50" relative="1" as="geometry">
            <mxPoint x="679" y="232.32999999999993" as="sourcePoint" />
            <mxPoint x="739" y="252.32999999999993" as="targetPoint" />
          </mxGeometry>
        </mxCell>
        <mxCell id="Bhoyn6dy_ex8HsSdMJCQ-8" value="zip" style="ellipse;whiteSpace=wrap;html=1;" parent="1" vertex="1">
          <mxGeometry x="500" y="11.859999999999928" width="90" height="70.3" as="geometry" />
        </mxCell>
        <mxCell id="iggD3c3EhTbQRu76CpcY-1" value="" style="endArrow=none;html=1;rounded=0;entryX=0;entryY=1;entryDx=0;entryDy=0;" parent="1" target="VGAGcDQXJvzM7aVspcji-1" edge="1">
          <mxGeometry width="50" height="50" relative="1" as="geometry">
            <mxPoint x="-429" y="585.17" as="sourcePoint" />
            <mxPoint x="-379" y="535.17" as="targetPoint" />
          </mxGeometry>
        </mxCell>
        <mxCell id="VGAGcDQXJvzM7aVspcji-1" value="Department Code" style="ellipse;whiteSpace=wrap;html=1;" parent="1" vertex="1">
          <mxGeometry x="-400" y="465" width="120" height="80" as="geometry" />
        </mxCell>
        <mxCell id="VGAGcDQXJvzM7aVspcji-2" value="Street Address" style="ellipse;whiteSpace=wrap;html=1;" parent="1" vertex="1">
          <mxGeometry x="560" y="222.5" width="120" height="80" as="geometry" />
        </mxCell>
        <mxCell id="VGAGcDQXJvzM7aVspcji-3" value="" style="endArrow=none;html=1;rounded=0;exitX=0.782;exitY=0.948;exitDx=0;exitDy=0;exitPerimeter=0;entryX=0.325;entryY=0.056;entryDx=0;entryDy=0;entryPerimeter=0;" parent="1" source="rLRTQVDjGqLQhPtuLX02-34" target="VGAGcDQXJvzM7aVspcji-2" edge="1">
          <mxGeometry width="50" height="50" relative="1" as="geometry">
            <mxPoint x="670" y="220" as="sourcePoint" />
            <mxPoint x="720" y="170" as="targetPoint" />
          </mxGeometry>
        </mxCell>
      </root>
    </mxGraphModel>
  </diagram>
</mxfile>
